<?xml version="1.0" encoding="UTF-8" standalone="no"?>
<svg width="322px" height="116px" viewBox="0 0 322 116" version="1.1" xmlns="http://www.w3.org/2000/svg" xmlns:xlink="http://www.w3.org/1999/xlink">
    <!-- Generator: Sketch 40 (33762) - http://www.bohemiancoding.com/sketch -->
    <title>background</title>
    <desc>Created with Sketch.</desc>
    <defs></defs>
    <g id="Page-1" stroke="none" stroke-width="1" fill="none" fill-rule="evenodd">
        <path d="M1.42108547e-14,2.99872479 C1.42108547e-14,1.34257482 1.34841549,0 3.00731434,0 L318.992686,0 C320.65358,0 322,1.34284999 322,2.99872479 L322,113.001275 C322,114.657425 320.651585,116 318.992686,116 L3.00731434,116 C1.34642049,116 1.42108547e-14,114.65715 1.42108547e-14,113.001275 L1.42108547e-14,2.99872479 Z M30.2020315,50.4 C29.3987633,51.644703 28.4886691,52.7673309 27.432,53.824 C24.192,57.064 19.656,58.72 14.976,58.72 C7.056,58.72 2.16,54.184 0,47.992 L4.536,45.328 C6.624,50.728 9.792,53.464 15.048,53.464 C18.2283329,53.464 20.8999129,52.3829 23.1225066,50.4 L16.008,50.4 L29.544,0 L35.232,0 L23.136,45.144 L26.745414,45.144 C27.488685,43.4959743 28.1516406,41.5349298 28.8,39.136 L37.296,7.6 L43.056,7.6 L34.272,40.216 C33.7946785,42.0422734 33.2994116,43.6711466 32.756888,45.144 L51.504,45.144 L50.064,50.4 L30.2020315,50.4 Z M138.202032,50.4 C137.398763,51.644703 136.488669,52.7673309 135.432,53.824 C132.192,57.064 127.656,58.72 122.976,58.72 C115.056,58.72 110.16,54.184 108,47.992 L112.536,45.328 C114.624,50.728 117.792,53.464 123.048,53.464 C126.228333,53.464 128.899913,52.3829 131.122507,50.4 L124.008,50.4 L137.544,0 L143.232,0 L131.136,45.144 L134.745414,45.144 C135.488685,43.4959743 136.151641,41.5349298 136.8,39.136 L145.296,7.6 L151.056,7.6 L142.272,40.216 C141.794679,42.0422734 141.299412,43.6711466 140.756888,45.144 L159.504,45.144 L158.064,50.4 L138.202032,50.4 Z M246.202032,50.4 C245.398763,51.644703 244.488669,52.7673309 243.432,53.824 C240.192,57.064 235.656,58.72 230.976,58.72 C223.056,58.72 218.16,54.184 216,47.992 L220.536,45.328 C222.624,50.728 225.792,53.464 231.048,53.464 C234.228333,53.464 236.899913,52.3829 239.122507,50.4 L232.008,50.4 L245.544,0 L251.232,0 L239.136,45.144 L242.745414,45.144 C243.488685,43.4959743 244.151641,41.5349298 244.8,39.136 L253.296,7.6 L259.056,7.6 L250.272,40.216 C249.794679,42.0422734 249.299412,43.6711466 248.756888,45.144 L267.504,45.144 L266.064,50.4 L246.202032,50.4 Z M84.2020315,107.4 C83.3987633,108.644703 82.4886691,109.767331 81.432,110.824 C78.192,114.064 73.656,115.72 68.976,115.72 C61.056,115.72 56.16,111.184 54,104.992 L58.536,102.328 C60.624,107.728 63.792,110.464 69.048,110.464 C72.2283329,110.464 74.8999129,109.3829 77.1225066,107.4 L70.008,107.4 L83.544,57 L89.232,57 L77.136,102.144 L80.745414,102.144 C81.488685,100.495974 82.1516406,98.5349298 82.8,96.136 L91.296,64.6 L97.056,64.6 L88.272,97.216 C87.7946785,99.0422734 87.2994116,100.671147 86.756888,102.144 L105.504,102.144 L104.064,107.4 L84.2020315,107.4 Z M192.202032,107.4 C191.398763,108.644703 190.488669,109.767331 189.432,110.824 C186.192,114.064 181.656,115.72 176.976,115.72 C169.056,115.72 164.16,111.184 162,104.992 L166.536,102.328 C168.624,107.728 171.792,110.464 177.048,110.464 C180.228333,110.464 182.899913,109.3829 185.122507,107.4 L178.008,107.4 L191.544,57 L197.232,57 L185.136,102.144 L188.745414,102.144 C189.488685,100.495974 190.151641,98.5349298 190.8,96.136 L199.296,64.6 L205.056,64.6 L196.272,97.216 C195.794679,99.0422734 195.299412,100.671147 194.756888,102.144 L213.504,102.144 L212.064,107.4 L192.202032,107.4 Z M300.202032,107.4 C299.398763,108.644703 298.488669,109.767331 297.432,110.824 C294.192,114.064 289.656,115.72 284.976,115.72 C277.056,115.72 272.16,111.184 270,104.992 L274.536,102.328 C276.624,107.728 279.792,110.464 285.048,110.464 C288.228333,110.464 290.899913,109.3829 293.122507,107.4 L286.008,107.4 L299.544,57 L305.232,57 L293.136,102.144 L296.745414,102.144 C297.488685,100.495974 298.151641,98.5349298 298.8,96.136 L307.296,64.6 L313.056,64.6 L304.272,97.216 C303.794679,99.0422734 303.299412,100.671147 302.756888,102.144 L321.504,102.144 L320.064,107.4 L300.202032,107.4 Z" id="background" fill="#F7F6E6"></path>
    </g>
</svg>