
<svg width="126px" height="120px" viewBox="39 109 638 602" version="1.1" xmlns="http://www.w3.org/2000/svg" xmlns:xlink="http://www.w3.org/1999/xlink">
    <!-- Generator: Sketch 39.1 (31720) - http://www.bohemiancoding.com/sketch -->
    <desc>Created with Sketch.</desc>
    <defs></defs>
    <g id="shiny-diamond" stroke="none" stroke-width="1" fill="none" fill-rule="evenodd" transform="translate(39.000000, 109.000000)">
        <g id="Group" fill="#000000">
            <path d="M90.7451781,145.676085 L175.092361,42.3996081 L148.845291,5.70264672 L32.6447696,5.70264672 L6.39178431,42.3996081 L90.7451781,145.676085 L90.7451781,145.676085 L90.7451781,145.676085 Z M180.84059,44.2935 L92.9547386,151.900054 C92.8305229,152.059552 92.6891536,152.201328 92.5232369,152.330994 C91.312134,153.30984 89.5284559,153.127303 88.5477435,151.918071 L0.643851307,44.2935 C-0.136045752,43.3317857 -0.218856209,41.9335193 0.531761438,40.877583 L28.7636209,1.40771815 C29.2658072,0.587779923 30.1637092,0.0330810811 31.1973611,0.0330810811 L150.29891,0.0330810811 L150.29891,0.0448957529 C151.184686,0.0508030888 152.053605,0.457818533 152.602815,1.23079344 L180.91719,40.824417 L180.84059,44.2935 L180.84059,44.2935 Z" id="Shape"></path>
            <path d="M110.588634,39.6798707 C112.154047,39.6798707 113.424005,40.948471 113.424005,42.5118475 C113.424005,44.0752239 112.154047,45.3438243 110.588634,45.3438243 L2.83566667,45.3438243 C1.27025327,45.3438243 0,44.0755193 0,42.5118475 C0,40.948471 1.26995752,39.6798707 2.83566667,39.6798707 L110.588634,39.6798707 L110.588634,39.6798707 Z" id="Shape"></path>
            <path d="M178.164333,39.6798707 C179.729747,39.6798707 181,40.948471 181,42.5118475 C181,44.0752239 179.729747,45.3438243 178.164333,45.3438243 L167.306404,45.3438243 C165.74099,45.3438243 164.470737,44.0755193 164.470737,42.5118475 C164.470737,40.948471 165.74099,39.6798707 167.306404,39.6798707 L178.164333,39.6798707 L178.164333,39.6798707 Z" id="Shape"></path>
            <path d="M28.5687206,3.91508687 C27.9896389,2.46956178 28.6985556,0.823482625 30.1459641,0.245449807 C31.5933725,-0.332878378 33.2415964,0.37511583 33.8203824,1.81473359 L93.3679036,149.085799 C93.9469853,150.53162 93.2380686,152.177403 91.7965752,152.755436 C90.3491667,153.333764 88.7009428,152.631678 88.1162418,151.186448 L28.5687206,3.91508687 L28.5687206,3.91508687 Z" id="Shape"></path>
            <path d="M121.328263,66.9546313 C121.907049,65.5091062 123.561188,64.801112 125.002681,65.3794402 C126.45009,65.9577683 127.159007,67.6094595 126.573714,69.0549846 L93.3679036,151.192355 C92.7891176,152.638176 91.1349788,153.345875 89.6934853,152.761639 C88.2460768,152.183311 87.5371601,150.531324 88.1162418,149.091707 L121.328263,66.9546313 L121.328263,66.9546313 Z" id="Shape"></path>
            <path d="M147.663763,1.81502896 C148.242845,0.369503861 149.896984,-0.332583012 151.343801,0.245745174 C152.791209,0.824073359 153.500126,2.47605985 152.915129,3.92128958 L148.336894,15.2489015 C147.758108,16.6944266 146.103969,17.4024208 144.662475,16.8181853 C143.215067,16.2401525 142.50615,14.588166 143.091443,13.1485483 L147.663763,1.81502896 L147.663763,1.81502896 Z" id="Shape"></path>
            <path d="M50.137,44.5767568 C48.9909624,45.6386004 47.2010735,45.5736197 46.1375507,44.4352761 C45.0743235,43.2966371 45.1393889,41.5031699 46.2854265,40.4469382 L88.8254542,0.800148649 C89.9655768,-0.261990347 91.7613807,-0.197009653 92.8186928,0.941629344 C93.8822157,2.08026834 93.8171503,3.87373552 92.6770278,4.92967181 L50.137,44.5767568 L50.137,44.5767568 Z" id="Shape"></path>
            <path d="M121.015358,27.2192317 C122.155185,28.2810753 122.22025,30.0689305 121.157023,31.2075695 C120.093204,32.3462085 118.303611,32.4111892 117.163489,31.3490502 L88.8192435,4.92967181 C87.6791209,3.86782819 87.6140556,2.08026834 88.6775784,0.941333977 C89.7408056,-0.197305019 91.5306944,-0.262285714 92.6711127,0.799853282 L121.015358,27.2192317 L121.015358,27.2192317 Z" id="Shape"></path>
            <path d="M141.478709,24.2516815 L146.75965,34.7180039 L157.239905,39.9923687 C158.634078,40.6885483 159.1895,42.3934054 158.492118,43.7857645 C158.208492,44.3463707 157.759245,44.7711081 157.239905,45.0366429 L146.75965,50.3110077 L141.478709,60.7773301 C140.781918,62.1696892 139.074248,62.7302954 137.680075,62.0282085 C137.119034,61.7449517 136.693743,61.2965849 136.427863,60.7773301 L131.152541,50.3110077 L120.67199,45.0366429 C119.277817,44.334556 118.722691,42.6353108 119.420074,41.2429517 C119.703699,40.6826409 120.152946,40.2579035 120.67199,39.9923687 L131.152541,34.7180039 L136.427863,24.2516815 C137.130864,22.8593224 138.832324,22.3049189 140.226497,23.0010985 C140.787538,23.2784479 141.213124,23.7268147 141.478709,24.2516815 L141.478709,24.2516815 L141.478709,24.2516815 Z M142.128475,38.0925695 L138.955652,31.8033243 L135.78342,38.0925695 C135.517539,38.6118243 135.091953,39.0601911 134.530912,39.3434479 L128.227853,42.5115521 L134.530912,45.6858591 C135.050843,45.9513938 135.499794,46.3761313 135.78342,46.9364421 L138.955652,53.2315946 L142.128475,46.9364421 C142.39406,46.4171873 142.819647,45.9688205 143.380392,45.6858591 L149.683747,42.5115521 L143.380392,39.3434479 C142.861052,39.0779131 142.412101,38.6531757 142.128475,38.0925695 L142.128475,38.0925695 Z" id="Shape"></path>
        </g>
    </g>
    <g id="shiny-diamond-copy-2" stroke="none" stroke-width="1" fill="none" fill-rule="evenodd" transform="translate(495.000000, 558.000000)">
        <g id="Group" fill="#000000">
            <path d="M90.7451781,145.676085 L175.092361,42.3996081 L148.845291,5.70264672 L32.6447696,5.70264672 L6.39178431,42.3996081 L90.7451781,145.676085 L90.7451781,145.676085 L90.7451781,145.676085 Z M180.84059,44.2935 L92.9547386,151.900054 C92.8305229,152.059552 92.6891536,152.201328 92.5232369,152.330994 C91.312134,153.30984 89.5284559,153.127303 88.5477435,151.918071 L0.643851307,44.2935 C-0.136045752,43.3317857 -0.218856209,41.9335193 0.531761438,40.877583 L28.7636209,1.40771815 C29.2658072,0.587779923 30.1637092,0.0330810811 31.1973611,0.0330810811 L150.29891,0.0330810811 L150.29891,0.0448957529 C151.184686,0.0508030888 152.053605,0.457818533 152.602815,1.23079344 L180.91719,40.824417 L180.84059,44.2935 L180.84059,44.2935 Z" id="Shape"></path>
            <path d="M110.588634,39.6798707 C112.154047,39.6798707 113.424005,40.948471 113.424005,42.5118475 C113.424005,44.0752239 112.154047,45.3438243 110.588634,45.3438243 L2.83566667,45.3438243 C1.27025327,45.3438243 0,44.0755193 0,42.5118475 C0,40.948471 1.26995752,39.6798707 2.83566667,39.6798707 L110.588634,39.6798707 L110.588634,39.6798707 Z" id="Shape"></path>
            <path d="M178.164333,39.6798707 C179.729747,39.6798707 181,40.948471 181,42.5118475 C181,44.0752239 179.729747,45.3438243 178.164333,45.3438243 L167.306404,45.3438243 C165.74099,45.3438243 164.470737,44.0755193 164.470737,42.5118475 C164.470737,40.948471 165.74099,39.6798707 167.306404,39.6798707 L178.164333,39.6798707 L178.164333,39.6798707 Z" id="Shape"></path>
            <path d="M28.5687206,3.91508687 C27.9896389,2.46956178 28.6985556,0.823482625 30.1459641,0.245449807 C31.5933725,-0.332878378 33.2415964,0.37511583 33.8203824,1.81473359 L93.3679036,149.085799 C93.9469853,150.53162 93.2380686,152.177403 91.7965752,152.755436 C90.3491667,153.333764 88.7009428,152.631678 88.1162418,151.186448 L28.5687206,3.91508687 L28.5687206,3.91508687 Z" id="Shape"></path>
            <path d="M121.328263,66.9546313 C121.907049,65.5091062 123.561188,64.801112 125.002681,65.3794402 C126.45009,65.9577683 127.159007,67.6094595 126.573714,69.0549846 L93.3679036,151.192355 C92.7891176,152.638176 91.1349788,153.345875 89.6934853,152.761639 C88.2460768,152.183311 87.5371601,150.531324 88.1162418,149.091707 L121.328263,66.9546313 L121.328263,66.9546313 Z" id="Shape"></path>
            <path d="M147.663763,1.81502896 C148.242845,0.369503861 149.896984,-0.332583012 151.343801,0.245745174 C152.791209,0.824073359 153.500126,2.47605985 152.915129,3.92128958 L148.336894,15.2489015 C147.758108,16.6944266 146.103969,17.4024208 144.662475,16.8181853 C143.215067,16.2401525 142.50615,14.588166 143.091443,13.1485483 L147.663763,1.81502896 L147.663763,1.81502896 Z" id="Shape"></path>
            <path d="M50.137,44.5767568 C48.9909624,45.6386004 47.2010735,45.5736197 46.1375507,44.4352761 C45.0743235,43.2966371 45.1393889,41.5031699 46.2854265,40.4469382 L88.8254542,0.800148649 C89.9655768,-0.261990347 91.7613807,-0.197009653 92.8186928,0.941629344 C93.8822157,2.08026834 93.8171503,3.87373552 92.6770278,4.92967181 L50.137,44.5767568 L50.137,44.5767568 Z" id="Shape"></path>
            <path d="M121.015358,27.2192317 C122.155185,28.2810753 122.22025,30.0689305 121.157023,31.2075695 C120.093204,32.3462085 118.303611,32.4111892 117.163489,31.3490502 L88.8192435,4.92967181 C87.6791209,3.86782819 87.6140556,2.08026834 88.6775784,0.941333977 C89.7408056,-0.197305019 91.5306944,-0.262285714 92.6711127,0.799853282 L121.015358,27.2192317 L121.015358,27.2192317 Z" id="Shape"></path>
            <path d="M141.478709,24.2516815 L146.75965,34.7180039 L157.239905,39.9923687 C158.634078,40.6885483 159.1895,42.3934054 158.492118,43.7857645 C158.208492,44.3463707 157.759245,44.7711081 157.239905,45.0366429 L146.75965,50.3110077 L141.478709,60.7773301 C140.781918,62.1696892 139.074248,62.7302954 137.680075,62.0282085 C137.119034,61.7449517 136.693743,61.2965849 136.427863,60.7773301 L131.152541,50.3110077 L120.67199,45.0366429 C119.277817,44.334556 118.722691,42.6353108 119.420074,41.2429517 C119.703699,40.6826409 120.152946,40.2579035 120.67199,39.9923687 L131.152541,34.7180039 L136.427863,24.2516815 C137.130864,22.8593224 138.832324,22.3049189 140.226497,23.0010985 C140.787538,23.2784479 141.213124,23.7268147 141.478709,24.2516815 L141.478709,24.2516815 L141.478709,24.2516815 Z M142.128475,38.0925695 L138.955652,31.8033243 L135.78342,38.0925695 C135.517539,38.6118243 135.091953,39.0601911 134.530912,39.3434479 L128.227853,42.5115521 L134.530912,45.6858591 C135.050843,45.9513938 135.499794,46.3761313 135.78342,46.9364421 L138.955652,53.2315946 L142.128475,46.9364421 C142.39406,46.4171873 142.819647,45.9688205 143.380392,45.6858591 L149.683747,42.5115521 L143.380392,39.3434479 C142.861052,39.0779131 142.412101,38.6531757 142.128475,38.0925695 L142.128475,38.0925695 Z" id="Shape"></path>
        </g>
    </g>
    <g id="shiny-diamond-copy" stroke="none" stroke-width="1" fill="none" fill-rule="evenodd" transform="translate(357.086832, 410.086832) rotate(45.000000) translate(-357.086832, -410.086832) translate(266.586832, 333.586832)">
        <g id="Group" fill="#000000">
            <path d="M90.7451781,145.676085 L175.092361,42.3996081 L148.845291,5.70264672 L32.6447696,5.70264672 L6.39178431,42.3996081 L90.7451781,145.676085 L90.7451781,145.676085 L90.7451781,145.676085 Z M180.84059,44.2935 L92.9547386,151.900054 C92.8305229,152.059552 92.6891536,152.201328 92.5232369,152.330994 C91.312134,153.30984 89.5284559,153.127303 88.5477435,151.918071 L0.643851307,44.2935 C-0.136045752,43.3317857 -0.218856209,41.9335193 0.531761438,40.877583 L28.7636209,1.40771815 C29.2658072,0.587779923 30.1637092,0.0330810811 31.1973611,0.0330810811 L150.29891,0.0330810811 L150.29891,0.0448957529 C151.184686,0.0508030888 152.053605,0.457818533 152.602815,1.23079344 L180.91719,40.824417 L180.84059,44.2935 L180.84059,44.2935 Z" id="Shape"></path>
            <path d="M110.588634,39.6798707 C112.154047,39.6798707 113.424005,40.948471 113.424005,42.5118475 C113.424005,44.0752239 112.154047,45.3438243 110.588634,45.3438243 L2.83566667,45.3438243 C1.27025327,45.3438243 0,44.0755193 0,42.5118475 C0,40.948471 1.26995752,39.6798707 2.83566667,39.6798707 L110.588634,39.6798707 L110.588634,39.6798707 Z" id="Shape"></path>
            <path d="M178.164333,39.6798707 C179.729747,39.6798707 181,40.948471 181,42.5118475 C181,44.0752239 179.729747,45.3438243 178.164333,45.3438243 L167.306404,45.3438243 C165.74099,45.3438243 164.470737,44.0755193 164.470737,42.5118475 C164.470737,40.948471 165.74099,39.6798707 167.306404,39.6798707 L178.164333,39.6798707 L178.164333,39.6798707 Z" id="Shape"></path>
            <path d="M28.5687206,3.91508687 C27.9896389,2.46956178 28.6985556,0.823482625 30.1459641,0.245449807 C31.5933725,-0.332878378 33.2415964,0.37511583 33.8203824,1.81473359 L93.3679036,149.085799 C93.9469853,150.53162 93.2380686,152.177403 91.7965752,152.755436 C90.3491667,153.333764 88.7009428,152.631678 88.1162418,151.186448 L28.5687206,3.91508687 L28.5687206,3.91508687 Z" id="Shape"></path>
            <path d="M121.328263,66.9546313 C121.907049,65.5091062 123.561188,64.801112 125.002681,65.3794402 C126.45009,65.9577683 127.159007,67.6094595 126.573714,69.0549846 L93.3679036,151.192355 C92.7891176,152.638176 91.1349788,153.345875 89.6934853,152.761639 C88.2460768,152.183311 87.5371601,150.531324 88.1162418,149.091707 L121.328263,66.9546313 L121.328263,66.9546313 Z" id="Shape"></path>
            <path d="M147.663763,1.81502896 C148.242845,0.369503861 149.896984,-0.332583012 151.343801,0.245745174 C152.791209,0.824073359 153.500126,2.47605985 152.915129,3.92128958 L148.336894,15.2489015 C147.758108,16.6944266 146.103969,17.4024208 144.662475,16.8181853 C143.215067,16.2401525 142.50615,14.588166 143.091443,13.1485483 L147.663763,1.81502896 L147.663763,1.81502896 Z" id="Shape"></path>
            <path d="M50.137,44.5767568 C48.9909624,45.6386004 47.2010735,45.5736197 46.1375507,44.4352761 C45.0743235,43.2966371 45.1393889,41.5031699 46.2854265,40.4469382 L88.8254542,0.800148649 C89.9655768,-0.261990347 91.7613807,-0.197009653 92.8186928,0.941629344 C93.8822157,2.08026834 93.8171503,3.87373552 92.6770278,4.92967181 L50.137,44.5767568 L50.137,44.5767568 Z" id="Shape"></path>
            <path d="M121.015358,27.2192317 C122.155185,28.2810753 122.22025,30.0689305 121.157023,31.2075695 C120.093204,32.3462085 118.303611,32.4111892 117.163489,31.3490502 L88.8192435,4.92967181 C87.6791209,3.86782819 87.6140556,2.08026834 88.6775784,0.941333977 C89.7408056,-0.197305019 91.5306944,-0.262285714 92.6711127,0.799853282 L121.015358,27.2192317 L121.015358,27.2192317 Z" id="Shape"></path>
            <path d="M141.478709,24.2516815 L146.75965,34.7180039 L157.239905,39.9923687 C158.634078,40.6885483 159.1895,42.3934054 158.492118,43.7857645 C158.208492,44.3463707 157.759245,44.7711081 157.239905,45.0366429 L146.75965,50.3110077 L141.478709,60.7773301 C140.781918,62.1696892 139.074248,62.7302954 137.680075,62.0282085 C137.119034,61.7449517 136.693743,61.2965849 136.427863,60.7773301 L131.152541,50.3110077 L120.67199,45.0366429 C119.277817,44.334556 118.722691,42.6353108 119.420074,41.2429517 C119.703699,40.6826409 120.152946,40.2579035 120.67199,39.9923687 L131.152541,34.7180039 L136.427863,24.2516815 C137.130864,22.8593224 138.832324,22.3049189 140.226497,23.0010985 C140.787538,23.2784479 141.213124,23.7268147 141.478709,24.2516815 L141.478709,24.2516815 L141.478709,24.2516815 Z M142.128475,38.0925695 L138.955652,31.8033243 L135.78342,38.0925695 C135.517539,38.6118243 135.091953,39.0601911 134.530912,39.3434479 L128.227853,42.5115521 L134.530912,45.6858591 C135.050843,45.9513938 135.499794,46.3761313 135.78342,46.9364421 L138.955652,53.2315946 L142.128475,46.9364421 C142.39406,46.4171873 142.819647,45.9688205 143.380392,45.6858591 L149.683747,42.5115521 L143.380392,39.3434479 C142.861052,39.0779131 142.412101,38.6531757 142.128475,38.0925695 L142.128475,38.0925695 Z" id="Shape"></path>
        </g>
    </g>
</svg>