<?xml version="1.0" encoding="UTF-8" standalone="no"?>
<svg width="150px" height="150px" viewBox="0 0 150 150" version="1.1" xmlns="http://www.w3.org/2000/svg" xmlns:xlink="http://www.w3.org/1999/xlink">
    <!-- Generator: Sketch 39.1 (31720) - http://www.bohemiancoding.com/sketch -->
    <title>customer</title>
    <desc>Created with Sketch.</desc>
    <defs></defs>
    <g id="custom-jewely" stroke="none" stroke-width="1" fill="none" fill-rule="evenodd">
        <g id="happy">
            <g id="Capa_1">
                <g id="Group">
                    <circle id="Oval" fill="#FFFFFF" cx="76" cy="76" r="71"></circle>
                    <path d="M75,0 C33.6443182,0 0,33.6443182 0,75 C0,116.355682 33.6443182,150 75,150 C116.355682,150 150,116.355682 150,75 C150,33.6443182 116.355682,0 75,0 L75,0 M75,143.181818 C37.4045455,143.181818 6.81818182,112.595455 6.81818182,75 C6.81818182,37.4045455 37.4045455,6.81818182 75,6.81818182 C112.595455,6.81818182 143.181818,37.4045455 143.181818,75 C143.181818,112.595455 112.595455,143.181818 75,143.181818 L75,143.181818" id="Shape" fill="#000000"></path>
                    <path d="M112.5,81.8181818 C110.618182,81.8181818 109.090909,83.3454545 109.090909,85.2272727 C109.090909,104.025 93.7977273,119.318182 75,119.318182 C56.2022727,119.318182 40.9090909,104.025 40.9090909,85.2272727 C40.9090909,83.3454545 39.3818182,81.8181818 37.5,81.8181818 C35.6181818,81.8181818 34.0909091,83.3454545 34.0909091,85.2272727 C34.0909091,107.785227 52.4420455,126.136364 75,126.136364 C97.5579545,126.136364 115.909091,107.785227 115.909091,85.2272727 C115.909091,83.3454545 114.381818,81.8181818 112.5,81.8181818 L112.5,81.8181818 Z" id="Shape" fill="#000000"></path>
                    <path d="M44.3181818,47.7272727 C49.9568182,47.7272727 54.5454545,52.3159091 54.5454545,57.9545455 C54.5454545,59.8363636 56.0727273,61.3636364 57.9545455,61.3636364 C59.8363636,61.3636364 61.3636364,59.8363636 61.3636364,57.9545455 C61.3636364,48.5556818 53.7170455,40.9090909 44.3181818,40.9090909 C34.9193182,40.9090909 27.2727273,48.5556818 27.2727273,57.9545455 C27.2727273,59.8363636 28.8,61.3636364 30.6818182,61.3636364 C32.5636364,61.3636364 34.0909091,59.8363636 34.0909091,57.9545455 C34.0909091,52.3159091 38.6795455,47.7272727 44.3181818,47.7272727 L44.3181818,47.7272727 Z" id="Shape" fill="#000000"></path>
                    <path d="M105.681818,40.9090909 C96.2829545,40.9090909 88.6363636,48.5556818 88.6363636,57.9545455 C88.6363636,59.8363636 90.1636364,61.3636364 92.0454545,61.3636364 C93.9272727,61.3636364 95.4545455,59.8363636 95.4545455,57.9545455 C95.4545455,52.3159091 100.043182,47.7272727 105.681818,47.7272727 C111.320455,47.7272727 115.909091,52.3159091 115.909091,57.9545455 C115.909091,59.8363636 117.436364,61.3636364 119.318182,61.3636364 C121.2,61.3636364 122.727273,59.8363636 122.727273,57.9545455 C122.727273,48.5556818 115.080682,40.9090909 105.681818,40.9090909 L105.681818,40.9090909 Z" id="Shape" fill="#000000"></path>
                </g>
            </g>
        </g>
    </g>
</svg>