<?xml version="1.0" encoding="UTF-8" standalone="no"?>
<svg width="72px" height="100px" viewBox="0 0 72 100" version="1.1" xmlns="http://www.w3.org/2000/svg" xmlns:xlink="http://www.w3.org/1999/xlink">
    <!-- Generator: Sketch 39.1 (31720) - http://www.bohemiancoding.com/sketch -->
    <title>diamond-ring</title>
    <desc>Created with Sketch.</desc>
    <defs></defs>
    <g id="custom-jewely" stroke="none" stroke-width="1" fill="none" fill-rule="evenodd">
        <g id="diamond-ring" fill="#000000">
            <g id="Capa_1">
                <g id="Group">
                    <path d="M41.0947672,42.5018913 L52.3650098,35.1122931 C53.056682,34.6588652 53.3427934,33.7865248 53.0545574,33.0106383 L49.6998295,23.9813239 C49.4418098,23.2869976 48.780118,22.8264775 48.0405246,22.8264775 L23.8419148,22.8264775 C23.1020852,22.8264775 22.4406295,23.2869976 22.1826098,23.9813239 L18.827882,33.0106383 C18.5396459,33.7865248 18.8257574,34.6588652 19.5174295,35.1122931 L30.7876721,42.5018913 C17.3137574,44.9423168 7.06190164,56.7749409 7.06190164,70.9602837 C7.06190164,86.9078014 20.0171803,99.8820331 35.9412197,99.8820331 C51.865259,99.8820331 64.8205377,86.9080378 64.8205377,70.9602837 C64.8203016,56.7747045 54.568682,44.9425532 41.0947672,42.5018913 L41.0947672,42.5018913 Z M35.9412197,96.3359338 C21.9694426,96.3359338 10.6028852,84.9527187 10.6028852,70.9602837 C10.6028852,56.9690307 21.9694426,45.586052 35.9412197,45.586052 C49.9129967,45.586052 61.2795541,56.9690307 61.2795541,70.9602837 C61.279318,84.9527187 49.9127607,96.3359338 35.9412197,96.3359338 L35.9412197,96.3359338 Z M35.9780459,26.6522459 L44.8614295,31.855792 L27.0495738,31.855792 L35.9780459,26.6522459 L35.9780459,26.6522459 Z M46.8101508,26.3725768 L48.0048787,29.5888889 L42.5139934,26.3725768 L46.8101508,26.3725768 L46.8101508,26.3725768 Z M25.0722885,26.3725768 L29.4180197,26.3725768 L23.871423,29.6049645 L25.0722885,26.3725768 L25.0722885,26.3725768 Z M26.4235279,35.4016548 L45.4586754,35.4016548 L35.9412197,41.6423168 L26.4235279,35.4016548 L26.4235279,35.4016548 Z" id="Shape"></path>
                    <path d="M35.9412197,50.1664303 C24.4915672,50.1664303 15.1766557,59.4945626 15.1766557,70.9602837 C15.1766557,82.4269504 24.4915672,91.7555556 35.9412197,91.7555556 C47.3908721,91.7555556 56.7057836,82.4269504 56.7057836,70.9602837 C56.7055475,59.4945626 47.3908721,50.1664303 35.9412197,50.1664303 L35.9412197,50.1664303 Z M35.9412197,88.2094563 C26.4440656,88.2094563 18.7176393,80.4716312 18.7176393,70.9602837 C18.7176393,61.4498818 26.4440656,53.7125296 35.9412197,53.7125296 C45.4383738,53.7125296 53.1648,61.4498818 53.1648,70.9602837 C53.1645639,80.4716312 45.4381377,88.2094563 35.9412197,88.2094563 L35.9412197,88.2094563 Z" id="Shape"></path>
                    <path d="M35.8102033,11.6527187 C36.788223,11.6527187 37.5806951,10.8588652 37.5806951,9.87966903 L37.5806951,1.77304965 C37.5806951,0.793853428 36.788223,0 35.8102033,0 C34.8321836,0 34.0397115,0.793853428 34.0397115,1.77304965 L34.0397115,9.87966903 C34.0397115,10.8588652 34.8321836,11.6527187 35.8102033,11.6527187 L35.8102033,11.6527187 Z" id="Shape"></path>
                    <path d="M11.6812328,35.9477541 C11.6812328,34.9685579 10.8887607,34.1747045 9.91074098,34.1747045 L1.81581639,34.1747045 C0.837796721,34.1747045 0.0453245902,34.9685579 0.0453245902,35.9477541 C0.0453245902,36.9269504 0.837796721,37.7208038 1.81581639,37.7208038 L9.91074098,37.7208038 C10.8887607,37.7208038 11.6812328,36.9269504 11.6812328,35.9477541 L11.6812328,35.9477541 Z" id="Shape"></path>
                    <path d="M70.0663869,34.1747045 L61.9714623,34.1747045 C60.9934426,34.1747045 60.2009705,34.9685579 60.2009705,35.9477541 C60.2009705,36.9269504 60.9934426,37.7208038 61.9714623,37.7208038 L70.0663869,37.7208038 C71.0444066,37.7208038 71.8368787,36.9269504 71.8368787,35.9477541 C71.8368787,34.9685579 71.0444066,34.1747045 70.0663869,34.1747045 L70.0663869,34.1747045 Z" id="Shape"></path>
                    <path d="M16.1513705,19.0600473 C16.4972066,19.406383 16.9502164,19.5794326 17.4034623,19.5794326 C17.8564721,19.5794326 18.309718,19.406383 18.655318,19.0600473 C19.3469902,18.3676123 19.3469902,17.2451537 18.6555541,16.5527187 L12.9319082,10.820331 C12.2404721,10.127896 11.1193967,10.1276596 10.4281967,10.820331 C9.73652459,11.512766 9.73652459,12.6352246 10.4279607,13.3276596 L16.1513705,19.0600473 L16.1513705,19.0600473 Z" id="Shape"></path>
                    <path d="M54.2164721,19.5794326 C54.669482,19.5794326 55.1227279,19.406383 55.4685639,19.0600473 L61.1922098,13.327896 C61.8836459,12.635461 61.8836459,11.512766 61.1919738,10.8205674 C60.5007738,10.127896 59.3796984,10.1281324 58.6882623,10.8205674 L52.9646164,16.5529551 C52.2731803,17.2453901 52.2731803,18.3680851 52.9648525,19.0602837 C53.3102164,19.406383 53.7634623,19.5794326 54.2164721,19.5794326 L54.2164721,19.5794326 Z" id="Shape"></path>
                </g>
            </g>
        </g>
    </g>
</svg>