<?xml version="1.0" encoding="UTF-8" standalone="no"?>
<svg width="99px" height="70px" viewBox="0 0 99 70" version="1.1" xmlns="http://www.w3.org/2000/svg" xmlns:xlink="http://www.w3.org/1999/xlink">
    <!-- Generator: Sketch 39.1 (31720) - http://www.bohemiancoding.com/sketch -->
    <title>diamond</title>
    <desc>Created with Sketch.</desc>
    <defs></defs>
    <g id="custom-jewely" stroke="none" stroke-width="1" fill="none" fill-rule="evenodd">
        <g id="small-diamond" transform="translate(-1.000000, 0.000000)" fill="#010002">
            <g id="Capa_1">
                <path d="M81.5647269,0.693688525 L18.929526,0.693688525 L1.13521116,24.3796736 L50.2471264,69.7997541 L99.3590417,24.3816386 L81.5647269,0.693688525 L81.5647269,0.693688525 Z M68.9553497,26.0974021 L50.2549993,62.8099585 L31.7111221,26.0974021 L68.9553497,26.0974021 L68.9553497,26.0974021 Z M33.4411842,22.1890377 L50.2471264,5.41064615 L67.0530687,22.1890377 L33.4411842,22.1890377 L33.4411842,22.1890377 Z M54.9721575,4.60172542 L77.7125997,4.60172542 L71.2942466,20.8973845 L54.9721575,4.60172542 L54.9721575,4.60172542 Z M29.4483295,20.6491408 L24.091173,4.60172542 L45.5220954,4.60172542 L29.4483295,20.6491408 L29.4483295,20.6491408 Z M27.3285607,26.0974021 L43.6096453,58.3327296 L8.75319205,26.0974021 L27.3285607,26.0974021 L27.3285607,26.0974021 Z M73.3477522,26.0974021 L91.7410608,26.0974021 L56.9649764,58.258715 L73.3477522,26.0974021 L73.3477522,26.0974021 Z M74.9918688,22.1890377 L81.1241745,6.62042477 L92.8193153,22.1890377 L74.9918688,22.1890377 L74.9918688,22.1890377 Z M20.2485589,5.45191093 L25.8366528,22.1910027 L7.67264134,22.1910027 L20.2485589,5.45191093 L20.2485589,5.45191093 Z" id="Shape"></path>
            </g>
        </g>
    </g>
</svg>