<?xml version="1.0" encoding="UTF-8" standalone="no"?>
<svg width="299px" height="388px" viewBox="0 0 299 388" version="1.1" xmlns="http://www.w3.org/2000/svg" xmlns:xlink="http://www.w3.org/1999/xlink">
    <!-- Generator: Sketch 39.1 (31720) - http://www.bohemiancoding.com/sketch -->
    <title>gia-cert</title>
    <desc>Created with Sketch.</desc>
    <defs></defs>
    <g id="Page-1" stroke="none" stroke-width="1" fill="none" fill-rule="evenodd">
        <g id="gia-cert" transform="translate(5.000000, 5.000000)">
            <g id="Page-1">
                <g id="gia-cert">
                    <rect id="Rectangle-2" stroke="#000000" stroke-width="9" x="29" y="115" width="94.4758554" height="3" rx="1.5"></rect>
                    <rect id="Rectangle-2" stroke="#000000" stroke-width="9" x="29" y="151" width="180.362997" height="4" rx="2"></rect>
                    <rect id="Rectangle-2" stroke="#000000" stroke-width="9" x="29" y="188" width="180.362997" height="4" rx="2"></rect>
                    <rect id="Rectangle-2" stroke="#000000" stroke-width="9" x="29" y="225" width="180.362997" height="4" rx="2"></rect>
                    <g id="GIA" transform="translate(60.000000, 26.000000)" fill="#000000">
                        <path d="M26.08,49.864 C34.72,49.864 41.56,46.336 46.456,40.864 L46.456,22.432 L23.56,22.432 L23.56,31.36 L36.232,31.36 L36.232,37.12 C34.288,38.92 30.328,40.792 26.08,40.792 C17.296,40.792 10.96,34.096 10.96,25.024 C10.96,15.952 17.296,9.256 26.08,9.256 C31.12,9.256 35.224,12.136 37.456,15.52 L45.88,10.912 C42.28,5.224 36.016,0.184 26.08,0.184 C11.968,0.184 0.448,9.832 0.448,25.024 C0.448,40.144 11.968,49.864 26.08,49.864 L26.08,49.864 Z M64.816,49 L64.816,0.976 L54.592,0.976 L54.592,49 L64.816,49 Z M119.104,49 L100.6,0.976 L87.784,0.976 L69.28,49 L80.872,49 L83.896,40.864 L104.488,40.864 L107.512,49 L119.104,49 Z M101.68,31.864 L86.704,31.864 L94.192,11.2 L101.68,31.864 Z"></path>
                    </g>
                    <path d="M238,257.00295 C238.166433,257.000985 238.333101,257 238.5,257 C261.419817,257 280,275.580183 280,298.5 C280,321.419817 261.419817,340 238.5,340 C215.580183,340 197,321.419817 197,298.5 C197,298.333101 197.000985,298.166433 197.00295,298 L8.00379625,298 C3.58342164,298 0,294.419352 0,289.990711 L0,8.00928923 C0,3.58588093 3.57250711,0 8.00379625,0 L229.996204,0 C234.416578,0 238,3.58064796 238,8.00928923 L238,257.00295 C215.310572,257.270826 197,275.747081 197,298.5 C197,321.419817 215.580183,340 238.5,340 C261.419817,340 280,321.419817 280,298.5 C280,275.580183 261.419817,257 238.5,257 C238.333101,257 238.166433,257.000985 238,257.00295 L238,257.00295 L238,257.00295 Z" id="Combined-Shape" stroke="#000000" stroke-width="9"></path>
                    <circle id="Oval" stroke="#000000" stroke-width="9" cx="239.5" cy="299.5" r="14.5"></circle>
                    <polygon id="Path-2" stroke="#000000" stroke-width="9" fill="#000000" transform="translate(266.589844, 353.000000) rotate(-30.000000) translate(-266.589844, -353.000000) " points="254 334 254 371.877977 266.589844 368.982277 279.179688 372 279.179688 334"></polygon>
                    <polygon id="Path-2" stroke="#000000" stroke-width="9" fill="#000000" transform="translate(209.589844, 353.000000) rotate(30.000000) translate(-209.589844, -353.000000) " points="197 334 197 371.877977 209.589844 368.982277 222.179688 372 222.179688 334"></polygon>
                </g>
            </g>
        </g>
    </g>
</svg>