<?xml version="1.0" encoding="UTF-8" standalone="no"?>
<svg width="150px" height="134px" viewBox="0 0 150 134" version="1.1" xmlns="http://www.w3.org/2000/svg" xmlns:xlink="http://www.w3.org/1999/xlink">
    <!-- Generator: Sketch 39.1 (31720) - http://www.bohemiancoding.com/sketch -->
    <title>jewelry-store</title>
    <desc>Created with Sketch.</desc>
    <defs></defs>
    <g id="custom-jewely" stroke="none" stroke-width="1" fill="none" fill-rule="evenodd">
        <g id="jewelry-store" transform="translate(0.000000, 0.090465)">
            <g id="Capa_1">
                <rect id="Rectangle" fill="#FFFFFF" x="6" y="18" width="138" height="31"></rect>
                <circle id="Oval-2" fill="#FFFFFF" cx="75" cy="19" r="16"></circle>
                <rect id="Rectangle" fill="#FFFFFF" x="12" y="45" width="130" height="86"></rect>
                <g id="Group" fill="#000000">
                    <path d="M147.65625,128.87527 L142.96875,128.87527 L142.96875,52.6323675 C145.768066,51.0091249 147.65625,47.9820205 147.65625,44.5205479 L147.65625,21.0886806 C147.65625,17.2186148 144.506836,14.0699576 140.63584,14.0699576 L93.159668,14.0699576 C91.0766602,5.9885995 83.7246094,0 75,0 C66.2753906,0 58.9233398,5.9885995 56.840332,14.0699576 L9.36416016,14.0699576 C5.49316406,14.0699576 2.34375,17.2186148 2.34375,21.0886806 L2.34375,44.5205479 C2.34375,47.9820205 4.23193359,51.0091249 7.03125,52.6323675 L7.03125,128.87527 L2.34375,128.87527 C1.04941406,128.87527 0,129.924432 0,131.218457 C0,132.512482 1.04941406,133.561644 2.34375,133.561644 L147.65625,133.561644 C148.950586,133.561644 150,132.512482 150,131.218457 C150,129.924432 148.950586,128.87527 147.65625,128.87527 L147.65625,128.87527 Z M138.28125,49.2069214 C135.69668,49.2069214 133.59375,47.1044971 133.59375,44.5205479 L142.96875,44.5205479 C142.96875,47.1044971 140.86582,49.2069214 138.28125,49.2069214 L138.28125,49.2069214 Z M7.03125,44.5205479 L16.40625,44.5205479 C16.40625,47.1044971 14.3033203,49.2069214 11.71875,49.2069214 C9.13417969,49.2069214 7.03125,47.1044971 7.03125,44.5205479 L7.03125,44.5205479 Z M86.71875,33.3631714 L86.71875,39.8341745 L77.34375,39.8341745 L77.34375,37.3392664 C80.8634766,36.8981615 84.0817383,35.4802406 86.71875,33.3631714 L86.71875,33.3631714 Z M119.53125,39.8341745 L119.53125,18.7563311 L128.90625,18.7563311 L128.90625,39.8341745 L119.53125,39.8341745 L119.53125,39.8341745 Z M114.84375,39.8341745 L105.46875,39.8341745 L105.46875,18.7563311 L114.84375,18.7563311 L114.84375,39.8341745 L114.84375,39.8341745 Z M100.78125,39.8341745 L91.40625,39.8341745 L91.40625,28.1182408 C91.40625,28.0236346 91.3989258,27.9307859 91.3880859,27.8391087 C92.8886719,25.1467871 93.7479492,22.0505588 93.749707,18.7563311 L100.78125,18.7563311 L100.78125,39.8341745 L100.78125,39.8341745 Z M72.65625,39.8341745 L63.28125,39.8341745 L63.28125,33.3631714 C65.9182617,35.4802406 69.1365234,36.8981615 72.65625,37.3392664 L72.65625,39.8341745 L72.65625,39.8341745 Z M58.6119141,27.8391087 C58.6010742,27.9307859 58.59375,28.0236346 58.59375,28.1182408 L58.59375,39.8341745 L49.21875,39.8341745 L49.21875,18.7563311 L56.250293,18.7563311 C56.2520508,22.0505588 57.1113281,25.14708 58.6119141,27.8391087 L58.6119141,27.8391087 Z M44.53125,39.8341745 L35.15625,39.8341745 L35.15625,18.7563311 L44.53125,18.7563311 L44.53125,39.8341745 L44.53125,39.8341745 Z M30.46875,39.8341745 L21.09375,39.8341745 L21.09375,18.7563311 L30.46875,18.7563311 L30.46875,39.8341745 L30.46875,39.8341745 Z M30.46875,44.5205479 C30.46875,47.1044971 28.3658203,49.2069214 25.78125,49.2069214 C23.1966797,49.2069214 21.09375,47.1044971 21.09375,44.5205479 L30.46875,44.5205479 L30.46875,44.5205479 Z M44.53125,44.5205479 C44.53125,47.1044971 42.4283203,49.2069214 39.84375,49.2069214 C37.2591797,49.2069214 35.15625,47.1044971 35.15625,44.5205479 L44.53125,44.5205479 L44.53125,44.5205479 Z M58.59375,44.5205479 C58.59375,47.1044971 56.4908203,49.2069214 53.90625,49.2069214 C51.3216797,49.2069214 49.21875,47.1044971 49.21875,44.5205479 L58.59375,44.5205479 L58.59375,44.5205479 Z M72.65625,44.5205479 C72.65625,47.1044971 70.5533203,49.2069214 67.96875,49.2069214 C65.3841797,49.2069214 63.28125,47.1044971 63.28125,44.5205479 L72.65625,44.5205479 L72.65625,44.5205479 Z M86.71875,44.5205479 C86.71875,47.1044971 84.6158203,49.2069214 82.03125,49.2069214 C79.4466797,49.2069214 77.34375,47.1044971 77.34375,44.5205479 L86.71875,44.5205479 L86.71875,44.5205479 Z M100.78125,44.5205479 C100.78125,47.1044971 98.6783203,49.2069214 96.09375,49.2069214 C93.5091797,49.2069214 91.40625,47.1044971 91.40625,44.5205479 L100.78125,44.5205479 L100.78125,44.5205479 Z M114.84375,44.5205479 C114.84375,47.1044971 112.74082,49.2069214 110.15625,49.2069214 C107.57168,49.2069214 105.46875,47.1044971 105.46875,44.5205479 L114.84375,44.5205479 L114.84375,44.5205479 Z M128.90625,44.5205479 C128.90625,47.1044971 126.80332,49.2069214 124.21875,49.2069214 C121.63418,49.2069214 119.53125,47.1044971 119.53125,44.5205479 L128.90625,44.5205479 L128.90625,44.5205479 Z M142.96875,21.0886806 L142.96875,39.8341745 L133.59375,39.8341745 L133.59375,18.7563311 L140.63584,18.7563311 C141.922266,18.7563311 142.96875,19.802564 142.96875,21.0886806 L142.96875,21.0886806 Z M75,4.68637347 C82.7540039,4.68637347 89.0625,10.9933535 89.0625,18.7454939 C89.0625,26.4976343 82.7540039,32.8046143 75,32.8046143 C67.2459961,32.8046143 60.9375,26.4976343 60.9375,18.7454939 C60.9375,10.9933535 67.2459961,4.68637347 75,4.68637347 L75,4.68637347 Z M9.36416016,18.7563311 L16.40625,18.7563311 L16.40625,39.8341745 L7.03125,39.8341745 L7.03125,21.0886806 C7.03125,19.802564 8.07773438,18.7563311 9.36416016,18.7563311 L9.36416016,18.7563311 Z M11.71875,53.8932949 C14.5168945,53.8932949 17.0308594,52.6599 18.75,50.7100757 C20.4691406,52.6599 22.9831055,53.8932949 25.78125,53.8932949 C28.5793945,53.8932949 31.0933594,52.6599 32.8125,50.7100757 C34.5316406,52.6599 37.0456055,53.8932949 39.84375,53.8932949 C42.6418945,53.8932949 45.1558594,52.6599 46.875,50.7100757 C48.5941406,52.6599 51.1081055,53.8932949 53.90625,53.8932949 C56.7043945,53.8932949 59.2183594,52.6599 60.9375,50.7100757 C62.6566406,52.6599 65.1706055,53.8932949 67.96875,53.8932949 C70.7668945,53.8932949 73.2808594,52.6599 75,50.7100757 C76.7191406,52.6599 79.2331055,53.8932949 82.03125,53.8932949 C84.8293945,53.8932949 87.3433594,52.6599 89.0625,50.7100757 C90.7816406,52.6599 93.2956055,53.8932949 96.09375,53.8932949 C98.8918945,53.8932949 101.405859,52.6599 103.125,50.7100757 C104.844141,52.6599 107.358105,53.8932949 110.15625,53.8932949 C112.954395,53.8932949 115.468359,52.6599 117.1875,50.7100757 C118.906641,52.6599 121.420605,53.8932949 124.21875,53.8932949 C127.016895,53.8932949 129.530859,52.6599 131.25,50.7100757 C132.969141,52.6599 135.483105,53.8932949 138.28125,53.8932949 L138.28125,128.87527 L133.59375,128.87527 L133.59375,63.2701424 C133.59375,60.68385 131.489063,58.5796683 128.902148,58.5796683 L98.4375,58.5796683 C95.8505859,58.5796683 93.7458984,60.68385 93.7458984,63.2701424 L93.7458984,128.87527 L11.71875,128.87527 L11.71875,53.8932949 L11.71875,53.8932949 Z M128.90625,128.87527 L98.4336914,128.87527 L98.4375,63.2660418 L128.90625,63.2701424 L128.90625,128.87527 L128.90625,128.87527 Z" id="Shape"></path>
                    <path d="M84.375,58.5796683 L21.09375,58.5796683 C18.5091797,58.5796683 16.40625,60.6820926 16.40625,63.2660418 L16.40625,119.502523 C16.40625,122.086473 18.5091797,124.188897 21.09375,124.188897 L84.375,124.188897 C86.9595703,124.188897 89.0625,122.086473 89.0625,119.502523 L89.0625,63.2660418 C89.0625,60.6820926 86.9595703,58.5796683 84.375,58.5796683 L84.375,58.5796683 Z M84.375,119.502523 L21.09375,119.502523 L21.09375,63.2660418 L84.375,63.2660418 L84.375,119.502523 L84.375,119.502523 Z" id="Shape"></path>
                    <path d="M103.125,105.443696 C104.419336,105.443696 105.46875,104.394534 105.46875,103.100509 L105.46875,96.070949 C105.46875,94.7769241 104.419336,93.7277623 103.125,93.7277623 C101.830664,93.7277623 100.78125,94.7769241 100.78125,96.070949 L100.78125,103.100509 C100.78125,104.394534 101.830664,105.443696 103.125,105.443696 L103.125,105.443696 Z" id="Shape"></path>
                    <path d="M63.7948242,17.866213 L73.1698242,29.5821467 C73.6145508,30.1380678 74.2880859,30.4614275 75,30.4614275 C75.7119141,30.4614275 76.3854492,30.1380678 76.8301758,29.5821467 L86.2051758,17.866213 C86.9510742,16.9339176 86.8766602,15.5898071 86.0323242,14.7456741 L81.3448242,10.0593006 C80.9053711,9.61995314 80.3091797,9.37303983 79.6875,9.37303983 L70.3125,9.37303983 C69.6908203,9.37303983 69.0946289,9.61995314 68.6551758,10.0593006 L63.9676758,14.7456741 C63.1233398,15.5898071 63.0489258,16.9336247 63.7948242,17.866213 L63.7948242,17.866213 Z M71.2833984,14.0591204 L78.7166016,14.0591204 L81.234375,16.5762888 L75,24.3673846 L68.765625,16.5762888 L71.2833984,14.0591204 L71.2833984,14.0591204 Z" id="Shape"></path>
                    <path d="M25.7850586,86.7714266 C25.7865234,86.819462 25.7879883,86.8672044 25.7923828,86.9149468 C25.7956055,86.9500946 25.8011719,86.9840708 25.8058594,87.0186328 C25.8114258,87.0590528 25.8166992,87.0994728 25.8243164,87.1395999 C25.8313477,87.1770908 25.8407227,87.2137031 25.8495117,87.2506083 C25.8583008,87.2872206 25.8670898,87.3238329 25.8776367,87.3598594 C25.8884766,87.3967646 25.9013672,87.433084 25.9139648,87.4694034 C25.9262695,87.5048441 25.9385742,87.5399919 25.9526367,87.5751397 C25.9666992,87.6102875 25.9825195,87.6442637 25.9983398,87.6785328 C26.0144531,87.7130948 26.0302734,87.7479497 26.0481445,87.7819259 C26.0657227,87.8153163 26.0847656,87.847828 26.1038086,87.8803398 C26.1228516,87.9131444 26.1418945,87.9456561 26.1629883,87.977582 C26.184668,88.0106795 26.2078125,88.0423125 26.230957,88.0742385 C26.2523438,88.1035283 26.2734375,88.133111 26.2962891,88.1615222 C26.3229492,88.1949126 26.3513672,88.2265456 26.3800781,88.2584715 C26.3970703,88.2775099 26.4120117,88.297427 26.4298828,88.3161725 L51.0392578,114.091227 C51.0401367,114.092105 51.0410156,114.092984 51.0418945,114.093863 C51.0509766,114.103235 51.0606445,114.111729 51.0697266,114.121102 C51.0852539,114.136919 51.1019531,114.151271 51.1177734,114.166501 C51.1883789,114.234161 51.2633789,114.298013 51.3430664,114.356592 C51.3533203,114.364208 51.3626953,114.372409 51.3729492,114.379731 C51.3820313,114.386175 51.3908203,114.393205 51.4001953,114.399649 C51.4045898,114.402578 51.4089844,114.404921 51.4133789,114.40785 C51.4728516,114.448563 51.534375,114.487225 51.5982422,114.522666 C51.6152344,114.532039 51.6331055,114.539654 51.6503906,114.548441 C51.6700195,114.558692 51.6899414,114.568065 51.7095703,114.577731 C51.7423828,114.593547 51.7740234,114.610828 51.8077148,114.62518 C51.8455078,114.641583 51.8847656,114.654177 51.9234375,114.668529 C51.9457031,114.67673 51.9673828,114.68581 51.9899414,114.693426 C51.9990234,114.696355 52.0078125,114.700455 52.0168945,114.703384 C52.0195313,114.704263 52.022168,114.705434 52.0248047,114.706313 C52.0259766,114.706606 52.0274414,114.706899 52.0286133,114.707192 C52.1258789,114.737946 52.2257813,114.760206 52.3265625,114.778073 C52.3423828,114.781002 52.3573242,114.785689 52.3731445,114.788032 C52.3907227,114.790668 52.4083008,114.790961 52.4258789,114.793304 C52.5181641,114.805606 52.6110352,114.813514 52.7050781,114.814685 C52.715332,114.814685 52.7255859,114.817029 52.7358398,114.817029 C52.7466797,114.817029 52.7572266,114.814685 52.7680664,114.814393 C52.8615234,114.812928 52.9543945,114.80502 53.0460938,114.792718 C53.0619141,114.790668 53.0774414,114.790961 53.0929688,114.788618 C53.1114258,114.785689 53.1292969,114.780416 53.1477539,114.777194 C53.2470703,114.759328 53.3455078,114.737067 53.4413086,114.706899 C53.4427734,114.706606 53.4439453,114.706313 53.4454102,114.70602 C53.446875,114.705727 53.4480469,114.704849 53.4495117,114.704556 C53.4644531,114.699869 53.4788086,114.693133 53.49375,114.68786 C53.5133789,114.681124 53.5324219,114.673216 53.5517578,114.666186 C53.5883789,114.65242 53.6255859,114.640411 53.6616211,114.62518 C53.6932617,114.611414 53.7231445,114.595305 53.7541992,114.580367 C53.7779297,114.568944 53.8016602,114.557521 53.8250977,114.545219 C53.8253906,114.544926 53.8259766,114.544926 53.8262695,114.544633 C53.840918,114.537018 53.8561523,114.530867 53.8705078,114.522666 C53.9484375,114.47961 54.0228516,114.43216 54.0943359,114.381489 C54.1081055,114.371823 54.1207031,114.360693 54.1341797,114.350442 C54.2091797,114.294498 54.2803711,114.234161 54.3474609,114.170309 C54.365918,114.152735 54.384668,114.136333 54.402832,114.118173 C54.412207,114.1088 54.421875,114.099721 54.430957,114.090348 L79.0397461,88.3158796 C79.0576172,88.297427 79.0725586,88.277217 79.0895508,88.2581786 C79.1179688,88.2262527 79.1463867,88.1946197 79.1733398,88.1612293 C79.1961914,88.1328181 79.2172852,88.1032354 79.2386719,88.0739456 C79.2618164,88.0420196 79.2849609,88.0103866 79.3066406,87.9772891 C79.3274414,87.9453632 79.3464844,87.9125586 79.3658203,87.8800469 C79.3848633,87.8475351 79.4039063,87.8150234 79.4214844,87.781633 C79.4393555,87.7476568 79.4551758,87.7130948 79.4712891,87.6782399 C79.4871094,87.6439708 79.5029297,87.6099946 79.5169922,87.5748468 C79.5310547,87.5399919 79.5433594,87.5045512 79.5556641,87.4691105 C79.5682617,87.4327911 79.5811523,87.3967646 79.5919922,87.3595665 C79.6025391,87.3232471 79.6113281,87.2869277 79.6201172,87.2503154 C79.6289063,87.2134102 79.6382813,87.1767979 79.6453125,87.139307 C79.6529297,87.0991799 79.6582031,87.0587599 79.6637695,87.0183399 C79.668457,86.9837779 79.6740234,86.9495088 79.6772461,86.9146539 C79.6816406,86.8669115 79.6831055,86.8188762 79.6845703,86.7711337 C79.6845703,86.7468232 79.6875,86.7228055 79.6875,86.6979092 C79.6875,86.6935157 79.6869141,86.6894151 79.6869141,86.6850216 C79.6866211,86.6302496 79.6828125,86.5754776 79.6787109,86.5207057 C79.6769531,86.4981525 79.6769531,86.4753064 79.6746094,86.4527532 C79.6669922,86.3804074 79.6558594,86.3086473 79.6417969,86.2371801 C79.6338867,86.197053 79.6224609,86.1580975 79.6125,86.1185562 C79.603125,86.0822368 79.5955078,86.0453317 79.584375,86.0095981 C79.5729492,85.9721071 79.5583008,85.9363735 79.5451172,85.8997612 C79.5325195,85.8649063 79.5210937,85.8294656 79.5067383,85.7951965 C79.4926758,85.7615132 79.4759766,85.7295872 79.4604492,85.6967826 C79.443457,85.6607561 79.4276367,85.6244367 79.4085937,85.5892889 C79.3916016,85.5579488 79.3722656,85.5280732 79.3541016,85.4976118 C79.3333008,85.4630497 79.3139648,85.4279019 79.2914062,85.3942186 C79.2679687,85.3593637 79.2418945,85.326852 79.2166992,85.2931687 C79.1961914,85.2659292 79.1774414,85.2381038 79.1557617,85.2114501 C79.106543,85.1516988 79.0549805,85.0942907 79.0001953,85.0398116 L67.284082,73.3265141 C67.1780273,73.220192 67.0608398,73.1235355 66.9333984,73.0380092 C66.9304687,73.0362518 66.928125,73.0339086 66.9251953,73.0318583 C66.8853516,73.0054975 66.8431641,72.9820656 66.8012695,72.957755 C66.7749023,72.9425243 66.7494141,72.9258291 66.7227539,72.9114771 C66.693457,72.8959535 66.6624023,72.883066 66.6325195,72.868714 C66.5915039,72.8490898 66.5504883,72.8288798 66.5083008,72.8115988 C66.5039062,72.8098414 66.5000977,72.8074982 66.4957031,72.8057408 C66.46875,72.7949036 66.4412109,72.7875811 66.4142578,72.7779155 C66.3726562,72.7629776 66.3310547,72.747454 66.2885742,72.7348594 C66.2490234,72.7231435 66.2088867,72.7143565 66.169043,72.7049838 C66.1347656,72.6967826 66.1010742,72.6877028 66.0665039,72.6809661 C66.0193359,72.6718863 65.972168,72.6660283 65.925293,72.6598774 C65.896875,72.6560698 65.86875,72.6513834 65.840332,72.6487473 C65.7887695,72.6440609 65.737207,72.6423035 65.6859375,72.6411319 C65.6657227,72.6405461 65.6458008,72.638203 65.6255859,72.638203 L65.5854492,72.638203 L65.578418,72.638203 L39.8900391,72.638203 L39.8874023,72.638203 L39.84375,72.638203 C39.8223633,72.638203 39.8009766,72.640839 39.7795898,72.6414248 C39.7294922,72.6428893 39.6796875,72.6443538 39.6295898,72.6487473 C39.6,72.6513834 39.5707031,72.6563627 39.5411133,72.6601703 C39.4951172,72.6663212 39.4491211,72.6718863 39.403125,72.6806732 C39.3676758,72.6874099 39.3331055,72.6967826 39.2979492,72.7052767 C39.2586914,72.7146494 39.2194336,72.7231435 39.1804688,72.7348594 C39.1376953,72.747454 39.0960938,72.7629776 39.0541992,72.7782084 C39.0272461,72.787874 39,72.7951965 38.9730469,72.8060337 C38.9686523,72.8077911 38.9648438,72.8101343 38.9604492,72.8118917 C38.9182617,72.8291727 38.8775391,72.8493827 38.8362305,72.8690068 C38.8060547,72.8833589 38.775,72.8962464 38.7459961,72.91177 C38.719043,72.926122 38.6938477,72.9428172 38.6674805,72.9580479 C38.6258789,72.9823585 38.5833984,73.0057904 38.5435547,73.0321512 C38.540625,73.0339086 38.5379883,73.0362518 38.5353516,73.0383021 C38.4079102,73.1238284 38.2907227,73.2204849 38.184668,73.326807 L26.4685547,85.0401045 C26.4137695,85.0945836 26.3619141,85.1519917 26.3129883,85.211743 C26.2913086,85.2381038 26.2722656,85.2662221 26.2520508,85.2934616 C26.2268555,85.326852 26.2007813,85.3596566 26.1773438,85.3945115 C26.1547852,85.4281948 26.1351563,85.4633426 26.1146484,85.4979047 C26.0964844,85.5283661 26.0768555,85.5582417 26.0601563,85.5895818 C26.0411133,85.6247296 26.025293,85.6613419 26.0083008,85.6970755 C25.9927734,85.7298801 25.9760742,85.7618061 25.9620117,85.7954894 C25.9476562,85.8300514 25.9362305,85.8651992 25.9236328,85.9000541 C25.9104492,85.9366664 25.8958008,85.9724 25.884375,86.009891 C25.8732422,86.0459174 25.865625,86.0825297 25.85625,86.1188491 C25.8462891,86.1583904 25.8348633,86.1973459 25.8269531,86.237473 C25.8125977,86.3089402 25.8017578,86.3807003 25.7941406,86.4530461 C25.7917969,86.4753064 25.7917969,86.4984454 25.7900391,86.5209986 C25.7859375,86.5757705 25.7821289,86.6305425 25.7818359,86.6853145 C25.7818359,86.689708 25.78125,86.6938086 25.78125,86.6982021 C25.78125,86.7228055 25.7841797,86.7468232 25.7850586,86.7714266 L25.7850586,86.7714266 Z M38.9876953,79.1516763 L41.0695312,84.3547224 L33.7833984,84.3547224 L38.9876953,79.1516763 L38.9876953,79.1516763 Z M71.6853516,84.3547224 L64.3992188,84.3547224 L66.4810547,79.1516763 L71.6853516,84.3547224 L71.6853516,84.3547224 Z M57.7324219,89.0410959 L52.734668,104.745719 L47.7366211,89.0410959 L57.7324219,89.0410959 L57.7324219,89.0410959 Z M49.0330078,84.3547224 L52.734668,79.0684932 L56.4360352,84.3547224 L49.0330078,84.3547224 L49.0330078,84.3547224 Z M62.6516602,89.0410959 L71.8664063,89.0410959 L58.0447266,103.517596 L62.6516602,89.0410959 L62.6516602,89.0410959 Z M60.3714844,81.8035779 L57.2361328,77.3251622 L62.1632813,77.3251622 L60.3714844,81.8035779 L60.3714844,81.8035779 Z M45.0972656,81.8038708 L43.3054688,77.3251622 L48.2334961,77.3251622 L45.0972656,81.8038708 L45.0972656,81.8038708 Z M42.8173828,89.0410959 L47.4249023,103.518475 L33.6023438,89.0410959 L42.8173828,89.0410959 L42.8173828,89.0410959 Z" id="Shape"></path>
                </g>
            </g>
        </g>
    </g>
</svg>