<?xml version="1.0" encoding="UTF-8" standalone="no"?>
<svg width="246px" height="20px" viewBox="0 0 246 20" version="1.1" xmlns="http://www.w3.org/2000/svg" xmlns:xlink="http://www.w3.org/1999/xlink">
    <!-- Generator: Sketch 39.1 (31720) - http://www.bohemiancoding.com/sketch -->
    <title>Slice</title>
    <desc>Created with Sketch.</desc>
    <defs></defs>
    <g id="Page-1" stroke="none" stroke-width="1" fill="none" fill-rule="evenodd">
        <path d="M16.3069083,12.1079692 L16.3069083,0.385604113 L14.5715878,0.385604113 L14.5715878,12.1079692 C14.5715878,16.3239075 11.9430878,18.277635 7.93653909,18.277635 C6.12466039,18.277635 4.26174285,17.8663239 3.01129136,16.4267352 C2.3733059,15.7069409 1.93947579,14.8586118 1.48012626,14.0102828 L0,14.781491 C0.612466039,16.1696658 1.1228544,17.1722365 2.27122823,18.1748072 C3.87895158,19.5886889 5.86946621,20 7.96205851,20 C12.9638645,20 16.3069083,17.3264781 16.3069083,12.1079692 L16.3069083,12.1079692 Z M48.1904769,10 C48.1904769,4.16452442 43.5459428,0 37.8806319,0 C32.3173987,0 27.698384,4.24164524 27.698384,9.94858612 C27.698384,15.7840617 32.3173987,19.9742931 38.008229,19.9742931 C43.622501,19.9742931 48.1904769,15.7583548 48.1904769,10 L48.1904769,10 Z M46.4551565,10.0514139 C46.4551565,14.8843188 42.6017243,18.2262211 37.9316708,18.2262211 C33.1595395,18.2262211 29.4081851,14.781491 29.4081851,9.89717224 C29.4081851,5.11568123 33.3892143,1.72236504 37.9827096,1.72236504 C42.6782826,1.72236504 46.4551565,5.26992288 46.4551565,10.0514139 L46.4551565,10.0514139 Z M77.1648319,19.562982 L77.1648319,0.411311054 L75.4295114,0.411311054 L75.4295114,16.7609254 L62.0062974,0.411311054 L60.270977,0.411311054 L60.270977,19.562982 L62.0062974,19.562982 L62.0062974,3.16195373 L75.403992,19.562982 L77.1648319,19.562982 Z M107.976585,19.562982 L98.7385555,0.385604113 L96.9777156,0.385604113 L87.663128,19.562982 L89.6026038,19.562982 L92.9456476,12.7249357 L102.694065,12.7249357 L106.037109,19.562982 L107.976585,19.562982 Z M101.902963,10.9768638 L93.8133078,10.9768638 L97.8708953,2.59640103 L101.902963,10.9768638 Z M135.521852,19.562982 L135.521852,0.385604113 L133.812051,0.385604113 L133.812051,8.71465296 L120.516434,8.71465296 L120.516434,0.385604113 L118.781114,0.385604113 L118.781114,19.562982 L120.516434,19.562982 L120.516434,10.437018 L133.812051,10.437018 L133.812051,19.562982 L135.521852,19.562982 Z M178.694819,19.562982 L178.694819,17.7892031 L166.266862,17.7892031 L166.266862,0.411311054 L164.531542,0.411311054 L164.531542,19.562982 L178.694819,19.562982 Z M205.346907,19.562982 L205.346907,17.81491 L190.7498,17.81491 L190.7498,10.5398458 L198.380106,10.5398458 L198.380106,8.79177378 L190.7498,8.79177378 L190.7498,2.21079692 L204.734441,2.21079692 L204.734441,0.411311054 L189.039999,0.411311054 L189.039999,19.562982 L205.346907,19.562982 Z M234.091587,0.411311054 L232.177631,0.411311054 L223.909339,17.3521851 L215.743125,0.411311054 L213.905727,0.411311054 L223.067199,19.562982 L224.75148,19.562982 L234.091587,0.411311054 Z M246.172087,19.562982 L246.172087,0.411311054 L244.487806,0.411311054 L244.487806,19.562982 L246.172087,19.562982 Z" id="JONAH-LEVI" fill="#000000"></path>
    </g>
</svg>