<?xml version="1.0" encoding="UTF-8" standalone="no"?>
<svg width="150px" height="136px" viewBox="0 0 150 136" version="1.1" xmlns="http://www.w3.org/2000/svg" xmlns:xlink="http://www.w3.org/1999/xlink">
    <!-- Generator: Sketch 39.1 (31720) - http://www.bohemiancoding.com/sketch -->
    <title>mac</title>
    <desc>Created with Sketch.</desc>
    <defs></defs>
    <g id="Page-1" stroke="none" stroke-width="1" fill="none" fill-rule="evenodd">
        <g id="mac">
            <g id="custom-jewely">
                <g id="mac">
                    <g id="Layer_1">
                        <rect id="Rectangle-2" fill="#FFFFFF" x="3" y="5" width="144" height="109" rx="8"></rect>
                        <g id="Group" fill="#000000">
                            <path d="M140.030792,0.0436633663 L9.93178218,0.0436633663 C4.45544554,0.0433663366 0,4.82910891 0,10.7111881 L0,107.173069 C0,113.055149 4.45544554,117.840297 9.93207921,117.840297 L64.1771287,117.840297 L60.2168317,129.721485 L49.5205518,129.721483 C47.8803538,129.721483 46.5502548,131.051582 46.5502548,132.69178 C46.5502548,134.331978 47.8803538,135.662077 49.5205518,135.662077 L62.3578218,135.662079 L87.6053465,135.662079 L100.422868,135.662077 C102.063066,135.662077 103.393166,134.331978 103.393166,132.69178 C103.393166,131.051582 102.063066,129.721483 100.422868,129.721483 L89.7463366,129.721485 L85.7860396,117.840297 L140.031089,117.840297 C145.507723,117.840297 149.963168,113.055149 149.963168,107.173069 L149.963168,10.7111881 C149.962871,4.82910891 145.507426,0.0436633663 140.030792,0.0436633663 Z M5.94059406,11.1715046 C5.94059406,8.31124989 7.73108911,5.98425743 9.93207921,5.98425743 L140.031089,5.98425743 C142.231782,5.98425743 144.022574,8.31124989 144.022574,11.1715046 L144.022574,89.1027724 L5.94059406,89.1027724 L5.94059406,11.1715046 L5.94059406,11.1715046 L5.94059406,11.1715046 Z M83.4840594,129.721485 L66.4785149,129.721485 L70.4391089,117.840297 L79.5234653,117.840297 L83.4840594,129.721485 L83.4840594,129.721485 L83.4840594,129.721485 Z M144.022277,108.611604 C144.022277,110.42441 142.231782,111.899406 140.030792,111.899406 L81.6644554,111.899406 L68.2981188,111.899406 L9.93178218,111.899406 C7.73108911,111.899406 5.94029703,110.42441 5.94029703,108.611604 L5.94029703,95.0436634 L144.02198,95.0436634 L144.02198,108.611604 L144.022277,108.611604 L144.022277,108.611604 Z" id="Shape"></path>
                        </g>
                    </g>
                </g>
                <path d="M24.56,47.02 C25.4,47.02 26.08,46.34 26.08,45.5 C26.08,44.66 25.4,44 24.56,44 C23.74,44 23.06,44.66 23.06,45.5 C23.06,46.34 23.74,47.02 24.56,47.02 L24.56,47.02 Z M22.4,61.64 C24.72,61.64 25.84,60.18 25.84,57.98 L25.84,48.06 L23.3,48.06 L23.3,57.98 C23.3,59.06 22.76,59.56 21.98,59.56 C21.4,59.56 21.06,59.38 20.68,59.06 L20,60.94 C20.7,61.44 21.18,61.64 22.4,61.64 L22.4,61.64 Z M32.84,57.96 C36.04,57.96 37.96,55.62 37.96,52.88 C37.96,50.14 36.04,47.82 32.84,47.82 C29.66,47.82 27.74,50.14 27.74,52.88 C27.74,55.62 29.66,57.96 32.84,57.96 L32.84,57.96 Z M32.84,55.7 C31.26,55.7 30.38,54.4 30.38,52.88 C30.38,51.38 31.26,50.08 32.84,50.08 C34.44,50.08 35.32,51.38 35.32,52.88 C35.32,54.4 34.44,55.7 32.84,55.7 L32.84,55.7 Z M48.94,57.72 L48.94,50.9 C48.94,49.02 47.92,47.82 45.78,47.82 C44.22,47.82 43.02,48.58 42.4,49.3 L42.4,48.06 L39.86,48.06 L39.86,57.72 L42.4,57.72 L42.4,51.2 C42.84,50.64 43.6,50.08 44.6,50.08 C45.68,50.08 46.38,50.54 46.38,51.88 L46.38,57.72 L48.94,57.72 Z M59.8,57.72 L59.8,51.48 C59.8,48.7 57.78,47.82 55.56,47.82 C54.04,47.82 52.52,48.28 51.34,49.34 L52.34,51.12 C53.14,50.38 54.1,49.98 55.12,49.98 C56.4,49.98 57.24,50.62 57.24,51.6 L57.24,52.82 C56.6,52.06 55.48,51.64 54.18,51.64 C52.64,51.64 50.84,52.48 50.84,54.76 C50.84,56.92 52.64,57.96 54.18,57.96 C55.44,57.96 56.58,57.5 57.24,56.7 L57.24,57.72 L59.8,57.72 Z M55.2,56.24 C54.2,56.24 53.38,55.72 53.38,54.8 C53.38,53.88 54.2,53.34 55.2,53.34 C56.02,53.34 56.82,53.64 57.24,54.2 L57.24,55.4 C56.82,55.96 56.02,56.24 55.2,56.24 L55.2,56.24 Z M71.38,57.72 L71.38,50.86 C71.38,48.98 70.36,47.82 68.24,47.82 C66.66,47.82 65.48,48.58 64.86,49.3 L64.86,44.38 L62.3,44.38 L62.3,57.72 L64.86,57.72 L64.86,51.2 C65.28,50.64 66.06,50.08 67.06,50.08 C68.14,50.08 68.84,50.5 68.84,51.84 L68.84,57.72 L71.38,57.72 Z M76.44,57.72 L76.44,44.38 L73.9,44.38 L73.9,57.72 L76.44,57.72 Z M83.5,57.96 C85,57.96 86.52,57.5 87.48,56.62 L86.34,54.94 C85.72,55.54 84.6,55.88 83.78,55.88 C82.14,55.88 81.18,54.9 81,53.72 L88.18,53.72 L88.18,53.12 C88.18,49.98 86.24,47.82 83.34,47.82 C80.42,47.82 78.34,50.08 78.34,52.88 C78.34,55.98 80.56,57.96 83.5,57.96 L83.5,57.96 Z M85.74,51.96 L80.98,51.96 C81.08,51 81.76,49.9 83.34,49.9 C85.02,49.9 85.66,51.04 85.74,51.96 L85.74,51.96 Z M95.26,57.72 L99.14,48.06 L96.42,48.06 L93.88,54.78 L91.36,48.06 L88.64,48.06 L92.52,57.72 L95.26,57.72 Z M101.54,47.02 C102.38,47.02 103.06,46.34 103.06,45.5 C103.06,44.66 102.38,44 101.54,44 C100.72,44 100.04,44.66 100.04,45.5 C100.04,46.34 100.72,47.02 101.54,47.02 L101.54,47.02 Z M102.82,57.72 L102.82,48.06 L100.28,48.06 L100.28,57.72 L102.82,57.72 Z M106.64,57.94 C107.52,57.94 108.26,57.2 108.26,56.32 C108.26,55.44 107.52,54.7 106.64,54.7 C105.76,54.7 105.02,55.44 105.02,56.32 C105.02,57.2 105.76,57.94 106.64,57.94 L106.64,57.94 Z M114.9,57.96 C116.88,57.96 118.08,57.08 118.72,56.2 L117.06,54.64 C116.6,55.3 115.9,55.7 115.02,55.7 C113.48,55.7 112.4,54.56 112.4,52.88 C112.4,51.2 113.48,50.08 115.02,50.08 C115.9,50.08 116.6,50.44 117.06,51.12 L118.72,49.56 C118.08,48.68 116.88,47.82 114.9,47.82 C111.94,47.82 109.78,49.92 109.78,52.88 C109.78,55.86 111.94,57.96 114.9,57.96 L114.9,57.96 Z M124.86,57.96 C128.06,57.96 129.98,55.62 129.98,52.88 C129.98,50.14 128.06,47.82 124.86,47.82 C121.68,47.82 119.76,50.14 119.76,52.88 C119.76,55.62 121.68,57.96 124.86,57.96 L124.86,57.96 Z M124.86,55.7 C123.28,55.7 122.4,54.4 122.4,52.88 C122.4,51.38 123.28,50.08 124.86,50.08 C126.46,50.08 127.34,51.38 127.34,52.88 C127.34,54.4 126.46,55.7 124.86,55.7 L124.86,55.7 Z" id="jonahlevi.co" fill="#000000"></path>
            </g>
            <path d="M107.752778,13.459217 L136.095343,39.6177448" id="Path-2" stroke="#000000" stroke-width="4" stroke-linecap="round" stroke-linejoin="round"></path>
            <path d="M123.519448,11.0297355 L137,23.9999999" id="Path-3" stroke="#000000" stroke-width="4" stroke-linecap="round" stroke-linejoin="round"></path>
        </g>
    </g>
</svg>